<?xml version="1.0" standalone="no"?>
<!DOCTYPE svg PUBLIC "-//W3C//DTD SVG 20010904//EN"
 "http://www.w3.org/TR/2001/REC-SVG-20010904/DTD/svg10.dtd">
<svg version="1.0" xmlns="http://www.w3.org/2000/svg"
 width="512.000000pt" height="512.000000pt" viewBox="0 0 512.000000 512.000000"
 preserveAspectRatio="xMidYMid meet">

<g transform="translate(0.000000,512.000000) scale(0.100000,-0.100000)"
fill="#000000" stroke="none">
<path d="M2476 5106 c-99 -37 -167 -134 -168 -239 0 -34 6 -78 15 -98 20 -49
73 -106 119 -130 l39 -20 -3 -92 -3 -92 -85 -8 c-47 -4 -121 -14 -166 -22 -44
-8 -84 -15 -87 -15 -4 0 -7 59 -7 131 0 73 -5 149 -12 170 -16 55 -73 118
-132 145 -47 22 -64 24 -213 24 l-162 0 -15 29 c-67 129 -221 179 -347 113
-95 -50 -147 -144 -136 -248 18 -177 210 -284 367 -204 41 21 105 87 115 119
6 20 12 21 161 21 152 0 155 -1 180 -25 24 -24 24 -26 22 -177 l-3 -152 -80
-31 c-477 -186 -874 -583 -1060 -1060 l-31 -80 -152 -3 c-151 -2 -153 -2 -177
22 -24 25 -25 28 -25 180 0 149 1 155 21 161 33 11 98 74 122 119 30 57 30
165 0 222 -30 57 -103 119 -158 134 -100 28 -216 -11 -275 -91 -40 -56 -53
-101 -48 -174 5 -82 44 -147 116 -195 l52 -34 0 -161 c0 -147 2 -164 24 -210
28 -60 66 -97 126 -124 38 -17 66 -21 184 -21 l138 0 -6 -32 c-16 -75 -36
-226 -36 -265 l0 -43 -99 0 -99 0 -12 30 c-15 37 -81 97 -129 118 -90 38 -220
7 -286 -70 -110 -129 -72 -318 78 -395 60 -30 150 -35 208 -10 48 20 113 79
129 117 l12 30 99 0 99 0 0 -42 c0 -40 20 -191 36 -265 l7 -33 -139 0 c-118 0
-146 -4 -184 -21 -60 -27 -98 -64 -126 -124 -22 -46 -24 -63 -24 -210 l0 -161
-52 -34 c-72 -48 -111 -113 -116 -195 -5 -73 8 -118 48 -174 86 -118 260 -134
372 -33 61 55 82 104 82 187 0 52 -5 80 -21 111 -24 45 -89 108 -122 119 -20
6 -21 12 -21 161 0 152 1 155 25 180 24 24 26 24 177 22 l152 -3 31 -80 c186
-477 583 -874 1060 -1060 l80 -31 3 -152 c2 -151 2 -153 -22 -177 -25 -24 -28
-25 -180 -25 -149 0 -155 1 -161 21 -11 33 -75 98 -119 122 -57 29 -165 29
-222 0 -53 -28 -107 -89 -129 -147 -37 -98 1 -224 86 -286 56 -40 101 -53 174
-48 82 5 147 44 195 116 l34 52 161 0 c139 0 166 3 205 21 60 27 98 64 126
124 21 45 24 64 24 188 0 75 3 137 7 137 3 0 43 -7 87 -15 45 -8 119 -18 166
-22 l85 -8 3 -92 3 -92 -39 -20 c-46 -24 -99 -81 -119 -130 -9 -20 -15 -64
-15 -98 1 -187 202 -310 369 -224 47 23 99 80 121 130 19 45 20 134 3 185 -16
47 -80 119 -121 136 l-30 12 0 99 0 99 43 0 c39 0 190 20 265 36 l32 7 0 -139
c0 -125 3 -144 24 -189 28 -60 66 -97 126 -124 39 -18 66 -21 205 -21 l161 0
34 -52 c48 -73 113 -111 196 -116 144 -9 257 83 271 222 8 75 -11 137 -60 192
-72 81 -161 109 -262 79 -63 -18 -135 -76 -155 -125 l-12 -30 -155 0 c-151 0
-154 1 -179 25 -24 24 -24 26 -22 176 l3 151 80 32 c491 198 860 568 1061
1061 l32 80 151 3 c150 2 152 2 176 -22 24 -25 25 -28 25 -179 l0 -155 -30
-12 c-68 -28 -140 -144 -140 -225 0 -50 33 -128 71 -170 124 -134 340 -103
415 60 60 127 8 276 -117 341 l-29 15 0 162 c0 149 -2 166 -24 212 -28 60 -66
97 -126 124 -38 17 -66 21 -182 21 -76 0 -138 2 -138 4 0 2 9 57 20 121 11 64
20 139 20 166 l0 49 99 0 99 0 12 -30 c16 -38 78 -95 126 -115 92 -38 229 -5
292 71 138 168 23 417 -193 416 -34 0 -77 -7 -98 -16 -49 -22 -111 -78 -127
-116 l-12 -30 -99 0 -99 0 0 49 c0 27 -9 102 -20 166 -11 64 -20 119 -20 121
0 2 62 4 138 4 123 0 142 3 187 24 60 28 97 66 124 126 18 39 21 66 21 207 l0
162 29 15 c90 47 141 131 141 231 0 139 -95 241 -235 253 -115 9 -226 -68
-259 -179 -20 -66 -20 -82 0 -148 17 -59 77 -131 124 -151 l30 -12 0 -155 c0
-151 -1 -154 -25 -179 -24 -24 -26 -24 -176 -22 l-151 3 -32 80 c-198 491
-568 860 -1061 1061 l-80 32 -3 151 c-2 150 -2 152 22 176 25 24 28 25 179 25
l155 0 12 -30 c20 -49 92 -107 155 -125 101 -30 190 -2 262 79 49 55 68 117
60 192 -14 139 -127 231 -271 222 -83 -5 -148 -43 -196 -116 l-34 -52 -161 0
c-147 0 -164 -2 -210 -24 -60 -28 -97 -66 -124 -126 -17 -38 -21 -66 -21 -184
l0 -138 -32 6 c-75 16 -226 36 -265 36 l-43 0 0 99 0 99 30 12 c37 15 97 81
118 129 19 46 20 146 0 192 -22 50 -74 107 -122 131 -52 26 -148 33 -200 14z
m119 -166 c30 -11 54 -60 47 -96 -6 -32 -47 -64 -82 -64 -86 0 -112 116 -35
158 25 14 37 14 70 2z m-1170 -105 c35 -34 33 -78 -5 -117 -26 -25 -36 -29
-63 -24 -36 7 -77 47 -77 77 0 26 26 76 42 82 34 14 80 6 103 -18z m2390 0
c32 -31 32 -75 1 -111 -49 -58 -146 -20 -146 57 0 70 94 106 145 54z m-1138
-575 c311 -24 580 -116 831 -284 511 -341 800 -935 752 -1541 -68 -848 -730
-1510 -1572 -1574 -687 -52 -1334 313 -1647 929 -426 838 -91 1862 749 2289
199 102 416 164 628 180 59 4 112 9 117 10 6 0 69 -4 142 -9z m-2276 -449 c17
-18 29 -40 29 -56 0 -38 -50 -85 -90 -85 -42 0 -80 39 -80 83 0 79 85 114 141
58z m4442 -2 c25 -31 22 -85 -8 -114 -31 -32 -75 -32 -111 -1 -63 53 -16 155
65 142 20 -3 44 -15 54 -27z m-4523 -1197 c11 -13 20 -37 20 -52 0 -35 -32
-76 -64 -82 -37 -7 -81 16 -96 51 -35 87 82 157 140 83z m4618 -16 c29 -58
-14 -120 -81 -118 -39 1 -77 41 -77 81 0 35 33 78 63 83 35 6 81 -16 95 -46z
m-4537 -1175 c17 -18 29 -40 29 -56 0 -32 -49 -85 -80 -85 -29 0 -76 26 -84
45 -13 35 -6 76 19 100 34 35 78 33 116 -4z m4434 4 c50 -49 24 -130 -46 -141
-81 -13 -128 89 -65 142 36 31 80 31 111 -1z m-3414 -1024 c56 -56 23 -141
-56 -141 -88 0 -114 117 -35 157 38 19 59 16 91 -16z m2397 -7 c70 -80 -48
-185 -123 -109 -35 34 -33 78 5 117 26 25 36 29 63 24 18 -3 42 -17 55 -32z
m-1203 -76 c73 -64 -7 -179 -93 -134 -34 17 -42 34 -42 81 0 66 82 98 135 53z"/>
<path d="M2455 4088 c-333 -23 -636 -166 -874 -414 -254 -264 -381 -578 -381
-944 0 -213 38 -391 122 -569 40 -85 41 -88 47 -231 6 -132 9 -150 34 -202 35
-71 110 -140 183 -167 44 -17 78 -21 173 -21 l119 0 4 -133 c3 -120 5 -137 31
-188 49 -102 143 -170 258 -189 83 -13 695 -13 778 0 83 14 147 47 200 105 70
76 85 120 91 270 l5 130 130 5 c116 4 136 8 186 33 64 31 126 93 160 159 19
36 24 65 29 188 6 141 8 147 47 235 91 204 123 349 124 566 0 165 -20 298 -66
438 -180 536 -671 908 -1235 933 -36 2 -110 0 -165 -4z m316 -183 c413 -72
771 -375 913 -773 53 -148 61 -203 61 -407 0 -176 -2 -197 -28 -288 -15 -55
-41 -131 -58 -170 -71 -164 -71 -165 -77 -310 -4 -119 -8 -143 -26 -169 -44
-66 -64 -72 -219 -78 -141 -6 -169 -12 -211 -49 -41 -36 -50 -71 -56 -218 -6
-156 -12 -174 -80 -220 -33 -23 -35 -23 -427 -23 -437 0 -428 -1 -480 67 -27
35 -28 42 -33 177 -6 145 -15 181 -56 217 -42 37 -70 43 -211 49 -122 4 -145
8 -169 26 -62 46 -68 64 -75 217 -7 149 -9 160 -73 304 -61 135 -88 257 -93
420 -6 159 5 260 43 392 54 183 147 343 288 488 185 193 416 313 686 356 65
11 304 6 381 -8z"/>
<path d="M1951 2715 c-173 -49 -249 -148 -239 -314 8 -143 82 -252 215 -318
69 -34 82 -37 162 -37 110 0 180 26 254 94 161 147 174 393 27 512 -20 15 -63
38 -95 49 -79 29 -246 36 -324 14z m257 -170 c74 -22 95 -53 90 -132 -7 -108
-78 -180 -188 -191 -60 -6 -112 11 -157 51 -87 76 -98 214 -20 256 61 33 193
40 275 16z"/>
<path d="M2894 2716 c-102 -25 -168 -70 -212 -146 -24 -41 -27 -55 -27 -145 0
-87 3 -107 26 -156 73 -155 237 -247 397 -222 189 29 319 169 330 352 10 173
-77 282 -256 320 -68 14 -193 13 -258 -3z m235 -167 c31 -6 63 -22 82 -40 30
-28 31 -32 27 -93 -5 -82 -39 -135 -111 -171 -68 -33 -127 -33 -196 1 -72 36
-104 86 -109 170 -4 61 -3 65 27 93 17 16 48 33 68 39 52 14 152 14 212 1z"/>
<path d="M2499 2036 c-84 -30 -105 -55 -159 -191 -39 -97 -41 -170 -9 -244 37
-87 136 -151 234 -151 49 0 119 28 163 65 90 78 108 190 53 332 -44 112 -67
143 -130 176 -60 30 -97 33 -152 13z m75 -162 c8 -3 29 -41 46 -85 29 -75 29
-81 16 -114 -36 -85 -156 -62 -156 30 0 37 45 155 63 167 15 9 12 9 31 2z"/>
</g>
</svg>
